<?xml version="1.0"?>
<svg xmlns="http://www.w3.org/2000/svg" height="45px" viewBox="0 0 496 496" width="45px" class=""><g><g fill="#231f20"><path d="m406.832031 227.40625-217.953125-138.605469c-7.386718-4.699219-16.746094-5.003906-24.421875-.792969-7.675781 4.210938-12.449219 12.269532-12.457031 21.023438v277.257812c-.0625 8.777344 4.722656 16.871094 12.449219 21.039063 7.664062 4.273437 17.0625 3.96875 24.429687-.800781l217.953125-138.617188c6.925781-4.402344 11.121094-12.042968 11.121094-20.25 0-8.207031-4.195313-15.847656-11.121094-20.253906zm-8.585937 26.992188-217.949219 138.640624c-2.464844 1.570313-5.585937 1.671876-8.148437.265626-2.558594-1.40625-4.148438-4.097657-4.148438-7.015626v-277.257812c-.03125-2.925781 1.570312-5.628906 4.152344-7.007812 1.195312-.660157 2.539062-1.011719 3.902344-1.023438 1.507812.011719 2.980468.457031 4.242187 1.289062l217.941406 138.621094c2.3125 1.46875 3.710938 4.015625 3.710938 6.753906 0 2.738282-1.398438 5.285157-3.710938 6.75zm0 0" data-original="#231F20" class="active-path" data-old_color="#231F20" fill="#67D5D1"/><path d="m248 0c-136.964844 0-248 111.035156-248 248s111.035156 248 248 248 248-111.035156 248-248c-.160156-136.902344-111.097656-247.839844-248-248zm0 480c-128.128906 0-232-103.871094-232-232s103.871094-232 232-232 232 103.871094 232 232c-.140625 128.070312-103.929688 231.859375-232 232zm0 0" data-original="#231F20" class="active-path" data-old_color="#231F20" fill="#67D5D1"/><path d="m109.976562 81.847656c-33.832031 28-58.28125 65.691406-70.054687 108-1.191406 4.257813 1.296875 8.671875 5.554687 9.859375 4.257813 1.191407 8.671876-1.296875 9.859376-5.554687 10.902343-39.175782 33.539062-74.074219 64.863281-100 2.257812-1.808594 3.363281-4.695313 2.890625-7.546875-.472656-2.855469-2.445313-5.230469-5.164063-6.21875-2.71875-.984375-5.757812-.425781-7.949219 1.460937zm0 0" data-original="#231F20" class="active-path" data-old_color="#231F20" fill="#67D5D1"/><path d="m43.664062 208.097656c-4.363281-.675781-8.449218 2.3125-9.128906 6.679688-1.277344 8.253906-2.078125 16.574218-2.398437 24.917968-.082031 2.125.683593 4.195313 2.132812 5.753907 1.445313 1.558593 3.453125 2.476562 5.578125 2.550781h.3125c4.300782.003906 7.835938-3.398438 8-7.695312.285156-7.730469 1.019532-15.4375 2.199219-23.082032.324219-2.097656-.199219-4.238281-1.457031-5.949218-1.253906-1.714844-3.140625-2.855469-5.238282-3.175782zm0 0" data-original="#231F20" class="active-path" data-old_color="#231F20" fill="#67D5D1"/></g></g> </svg>
