<?xml version="1.0"?>
<svg xmlns="http://www.w3.org/2000/svg" xmlns:xlink="http://www.w3.org/1999/xlink" version="1.1" id="Layer_1" x="0px" y="0px" viewBox="0 0 338.352 338.352" style="enable-background:new 0 0 338.352 338.352;" xml:space="preserve" width="55px" height="55px"><g><g>
	<g>
		<path d="M169.176,0C75.601,0,0,75.514,0,169.176s75.514,169.176,169.176,169.176s169.176-75.514,169.176-169.176    S262.752,0,169.176,0z M169.176,315.731c-81.191,0-146.556-65.365-146.556-146.556S87.986,22.619,169.176,22.619    s146.556,65.365,146.556,146.556S250.367,315.731,169.176,315.731z" data-original="#000000" class="active-path" data-old_color="#000000" fill="#67D5D1"/>
	</g>
</g><g>
	<g>
		<path d="M218.802,95.898h-98.134c-13.503,0-24.77,11.267-24.77,24.77v98.134c0,13.503,11.267,24.77,24.77,24.77h98.134    c13.503,0,24.77-11.267,24.77-24.77v-98.134C243.572,107.164,232.305,95.898,218.802,95.898z M219.92,217.683    c0,1.118-1.118,2.236-2.236,2.236H119.55c-1.118,0-2.236-1.118-2.236-2.236V119.55c0-1.118,1.118-2.236,2.236-2.236h98.134    c1.118,0,2.236,1.118,2.236,2.236V217.683z" data-original="#000000" class="active-path" data-old_color="#000000" fill="#67D5D1"/>
	</g>
</g></g> </svg>
